<svg id="visual" viewBox="0 0 1024 300" width="1024" height="300" xmlns="http://www.w3.org/2000/svg" xmlns:xlink="http://www.w3.org/1999/xlink" version="1.1"><rect x="0" y="0" width="1024" height="300" fill="#111111"></rect><path d="M0 215L15.5 209C31 203 62 191 93 189.2C124 187.3 155 195.7 186 200.2C217 204.7 248 205.3 279 208C310 210.7 341 215.3 372 225.8C403 236.3 434 252.7 465.2 257.2C496.3 261.7 527.7 254.3 558.8 244.3C590 234.3 621 221.7 652 220.7C683 219.7 714 230.3 745 233.5C776 236.7 807 232.3 838 231.3C869 230.3 900 232.7 931 225.3C962 218 993 201 1008.5 192.5L1024 184L1024 301L1008.5 301C993 301 962 301 931 301C900 301 869 301 838 301C807 301 776 301 745 301C714 301 683 301 652 301C621 301 590 301 558.8 301C527.7 301 496.3 301 465.2 301C434 301 403 301 372 301C341 301 310 301 279 301C248 301 217 301 186 301C155 301 124 301 93 301C62 301 31 301 15.5 301L0 301Z" fill="#59E8D2" stroke-linecap="round" stroke-linejoin="miter"></path></svg>